<?xml version="1.0" encoding="utf-8"?>
<!-- Generator: Adobe Illustrator 22.1.0, SVG Export Plug-In . SVG Version: 6.00 Build 0)  -->
<svg version="1.1" id="Layer_1" xmlns="http://www.w3.org/2000/svg" xmlns:xlink="http://www.w3.org/1999/xlink" x="0px" y="0px"
	 viewBox="0 0 964 162" style="enable-background:new 0 0 964 162;" xml:space="preserve">
<style type="text/css">
	.st0{fill:#FFFFFF;}
</style>
<path class="st0" d="M957.9,48.3c-3.6-9.7-8.8-18.1-15.4-25.2c-7-7.4-14.9-12.9-23.6-16.3c-9.6-3.8-19.8-5.7-30.4-5.7
	c-10.7,0-20.8,1.9-30,5.7c-9.4,4.1-17.1,9.4-23.6,16.3c-6.3,6.7-11.2,14.9-15,25.2c-3.6,10-5.3,20.3-5.3,32.7
	c0,12.6,1.7,23.3,5.2,32.6c3.1,9.3,8.3,18.1,15.1,25.2c6.6,7,14.8,12.7,23.6,16.3c9.2,3.8,19.3,5.7,30,5.7c10.8,0,20.5-1.8,30.4-5.7
	c9.4-4.1,17.1-9.4,23.5-16.2c6.5-6.5,11.5-14.7,15.5-25.2c3.5-9.4,5.3-20.1,5.3-32.7C963.2,68.8,961.5,58.1,957.9,48.3z M947.8,81
	c0,11.4-1.4,20.7-4.2,27.7l0,0.1c-2.8,8.3-6.6,15.1-11.8,20.6c-5.3,5.6-11.4,9.9-18.7,13c-7.2,3-15.3,4.6-24.1,4.6
	c-8.8,0-16.9-1.5-24.1-4.6c-7.3-3.1-13.4-7.3-18.7-13c-5-5.4-8.9-12-12.2-20.6c-2.8-8.4-4.2-17.8-4.2-27.8c0-11.2,1.4-20.3,4.2-27.7
	c3.3-8.7,7.2-15.3,12.2-20.7c5.3-5.6,11.4-9.9,18.7-13c7.2-3,15.3-4.6,24.1-4.6c8.8,0,16.9,1.5,24.1,4.6c7.3,3.1,13.4,7.3,18.6,12.9
	c5.4,6.2,9.4,13.1,11.9,20.7C946.3,61.6,947.8,71,947.8,81z"/>
<g>
	<polygon class="st0" points="639.1,3.1 623.5,3.1 683.7,87.6 623.9,159.2 640.6,159.2 691.3,98.5 734.2,159.2 750.2,159.2 639.7,4 
			"/>
	<polygon class="st0" points="716.8,74.4 776.7,3.1 760,3.1 709.3,63.9 665.9,3.1 650.4,3.1 760.9,158.4 761.5,159.2 777,159.2 	"/>
</g>
<rect x="2" y="3.1" class="st0" width="15.1" height="156.1"/>
<path class="st0" d="M211,3.1v129L116.7,6c-0.5-0.9-1.2-1.4-1.6-1.7c-0.1-0.1-0.2-0.1-0.2-0.2l-0.2-0.2l-0.3-0.1
	c-1.2-0.6-2-0.6-3.3-0.6h-7.5v156.1H117V29.8l94.7,126.1c0.6,1.1,1.3,1.7,2.4,2.3c1.2,0.6,2.3,0.6,3.3,0.6h7.1V3.1H211z"/>
<path class="st0" d="M411.7,3.1c-1.7,0-2.8,0.6-3.6,1c-1.4,0.7-2,2-2.5,2.9l-51.8,126.2l-0.1,0.3c-0.1,0.6-0.4,1.2-0.6,1.9
	c-0.2,0.6-0.4,1.2-0.6,1.9c-0.2-0.7-0.4-1.3-0.6-1.9c-0.2-0.7-0.5-1.3-0.6-1.9l0-0.1L299.4,7.2L299.3,7c-0.4-0.9-1-2-2.2-2.7
	c-0.9-0.7-2.1-1.2-3.5-1.2h-11.7l64.1,156.1h12.6L423,3.1H411.7z"/>
<polygon class="st0" points="503.4,145.8 503.4,86.6 569.7,86.6 569.7,73.5 503.4,73.5 503.4,16.2 583.2,16.2 583.2,3.1 488.3,3.1 
	488.3,158.9 583.1,158.9 583.6,145.8 "/>
</svg>
